# xmcd CD database file
#
# Track frame offsets:
#	150
#	16277
#	29091
#	44553
#	57498
#	75513
#	92077
#	107492
#	120035
#	135486
#	155425
#	172755
#
# Disc length: 2514 seconds
#
# Revision: 0
# Processed by: cddbd v1.5.1PL0 Copyright (c) Steve Scherf et al.
# Submitted via: CDex 1.51
#
DISCID=8a09d00c
DTITLE=Gretchen Wilson - All Jacked Up
DYEAR=2005
DGENRE=Country
TTITLE0=All Jacked Up
TTITLE1=California Girls
TTITLE2=Full Time Job
TTITLE3=Skoal Ring
TTITLE4=He Ain't Even Cold Yet
TTITLE5=One Bud Wiser
TTITLE6=Politically Uncorrect 
TTITLE7=I Don't Feel Like Loving You Today 
TTITLE8=Rebel Child
TTITLE9=Raining On Me
TTITLE10=Not Bad For A Bartender
TTITLE11=Good Morning Heartache
EXTD=YEAR: 2005
EXTT0=
EXTT1=
EXTT2=
EXTT3=
EXTT4=
EXTT5=
EXTT6=
EXTT7=
EXTT8=
EXTT9=
EXTT10=
EXTT11=
PLAYORDER=
